<svg width="57" height="10" viewBox="0 0 57 10" fill="none" xmlns="http://www.w3.org/2000/svg">
<path d="M8.136 0.456H6.204V2.244C6.204 3.564 6.216 4.812 6.252 6.216C5.856 5.424 5.328 4.536 4.92 3.864L2.832 0.456H0.648V9H2.58V7.212C2.58 5.904 2.568 4.656 2.532 3.264C2.928 4.044 3.384 4.8 3.864 5.592L5.952 9H8.136V0.456ZM12.2822 9.144C14.2502 9.144 15.5222 7.872 15.5222 5.904C15.5222 3.936 14.2502 2.664 12.2822 2.664C10.3022 2.664 9.03019 3.936 9.03019 5.904C9.03019 7.872 10.3022 9.144 12.2822 9.144ZM12.2822 7.644C11.4422 7.644 10.9262 7.08 10.9262 5.904C10.9262 4.728 11.4422 4.164 12.2822 4.164C13.1102 4.164 13.6262 4.728 13.6262 5.904C13.6262 7.08 13.1102 7.644 12.2822 7.644ZM20.3934 9H22.2774C22.1094 8.76 22.0254 8.316 22.0254 7.86V4.572C22.0254 3.396 21.2094 2.664 19.2654 2.664C17.2734 2.664 16.3974 3.444 16.3014 4.812H18.1614C18.2214 4.176 18.5214 3.996 19.2534 3.996C19.9974 3.996 20.2014 4.248 20.2014 4.62C20.2014 5.016 19.9254 5.172 19.3974 5.232L18.4254 5.316C16.6374 5.472 16.0014 6.18 16.0014 7.248C16.0014 8.484 16.9614 9.144 18.2574 9.144C19.1694 9.144 19.8414 8.832 20.2374 8.304C20.2494 8.58 20.3094 8.844 20.3934 9ZM18.8214 7.884C18.2334 7.884 17.9094 7.608 17.9094 7.176C17.9094 6.744 18.1734 6.504 18.8094 6.432L19.5774 6.348C19.8654 6.312 20.0694 6.252 20.2014 6.108V6.564C20.2014 7.536 19.5414 7.884 18.8214 7.884ZM26.7728 2.664C25.9088 2.664 25.2848 3.072 24.8768 3.624V0.456H23.0048V9H24.8768V5.544C24.8768 4.632 25.4768 4.26 26.0528 4.26C26.7488 4.26 27.0488 4.632 27.0488 5.316V9H28.9208V4.944C28.9208 3.408 27.9968 2.664 26.7728 2.664ZM36.3502 2.268V0.456H29.0662V2.268H31.6822V9H33.7222V2.268H36.3502ZM40.0694 2.712C39.1454 2.712 38.5694 3.192 38.3054 3.96V2.808H36.4814V9H38.3534V6.12C38.3534 4.956 38.9534 4.44 39.9974 4.44H40.4774V2.736C40.3454 2.724 40.2134 2.712 40.0694 2.712ZM44.9911 9H46.8751C46.7071 8.76 46.6231 8.316 46.6231 7.86V4.572C46.6231 3.396 45.8071 2.664 43.8631 2.664C41.8711 2.664 40.9951 3.444 40.8991 4.812H42.7591C42.8191 4.176 43.1191 3.996 43.8511 3.996C44.5951 3.996 44.7991 4.248 44.7991 4.62C44.7991 5.016 44.5231 5.172 43.9951 5.232L43.0231 5.316C41.2351 5.472 40.5991 6.18 40.5991 7.248C40.5991 8.484 41.5591 9.144 42.8551 9.144C43.7671 9.144 44.4391 8.832 44.8351 8.304C44.8471 8.58 44.9071 8.844 44.9911 9ZM43.4191 7.884C42.8311 7.884 42.5071 7.608 42.5071 7.176C42.5071 6.744 42.7711 6.504 43.4071 6.432L44.1751 6.348C44.4631 6.312 44.6671 6.252 44.7991 6.108V6.564C44.7991 7.536 44.1391 7.884 43.4191 7.884ZM51.3822 2.664C50.4822 2.664 49.8462 3.108 49.4382 3.684V2.808H47.6142V9H49.4862V5.544C49.4862 4.632 50.0862 4.26 50.6622 4.26C51.3582 4.26 51.6582 4.632 51.6582 5.316V9H53.5302V4.944C53.5302 3.408 52.6062 2.664 51.3822 2.664ZM54.4783 6.936V9H56.5903V6.936H54.4783Z" fill="#BFBFBF"/>
</svg>
